<svg xmlns="http://www.w3.org/2000/svg" xmlns:xlink="http://www.w3.org/1999/xlink" preserveAspectRatio="xMidYMid" width="25" height="22" viewBox="0 0 25 22">
  <defs>
    <style>

      .cls-2 {
        fill: #1c1a2c;
      }
    </style>
  </defs>
  <path d="M24.629,21.308 C24.021,22.089 22.890,22.234 22.101,21.633 C22.101,21.633 14.470,16.015 14.470,16.015 C12.955,17.157 11.069,17.844 9.017,17.844 C4.037,17.844 -0.000,13.849 -0.000,8.922 C-0.000,3.994 4.037,-0.000 9.017,-0.000 C13.997,-0.000 18.034,3.994 18.034,8.922 C18.034,10.524 17.601,12.024 16.854,13.324 C16.854,13.324 24.301,18.805 24.301,18.805 C25.089,19.407 25.236,20.527 24.629,21.308 ZM9.001,2.687 C5.522,2.687 2.702,5.479 2.702,8.922 C2.702,12.365 5.522,15.156 9.001,15.156 C12.479,15.156 15.299,12.365 15.299,8.922 C15.299,5.479 12.479,2.687 9.001,2.687 Z" id="path-1" class="cls-2" fill-rule="evenodd"/>
</svg>
